<?xml version="1.0" encoding="utf-8" standalone="no"?>
<!DOCTYPE svg PUBLIC "-//W3C//DTD SVG 1.1//EN"
  "http://www.w3.org/Graphics/SVG/1.1/DTD/svg11.dtd">
<svg xmlns:xlink="http://www.w3.org/1999/xlink" width="452.610991pt" height="338.717607pt" viewBox="0 0 452.610991 338.717607" xmlns="http://www.w3.org/2000/svg" version="1.1">
 <metadata>
  <rdf:RDF xmlns:dc="http://purl.org/dc/elements/1.1/" xmlns:cc="http://creativecommons.org/ns#" xmlns:rdf="http://www.w3.org/1999/02/22-rdf-syntax-ns#">
   <cc:Work>
    <dc:type rdf:resource="http://purl.org/dc/dcmitype/StillImage"/>
    <dc:date>2023-05-07T13:19:45.546179</dc:date>
    <dc:format>image/svg+xml</dc:format>
    <dc:creator>
     <cc:Agent>
      <dc:title>Matplotlib v3.7.1, https://matplotlib.org/</dc:title>
     </cc:Agent>
    </dc:creator>
   </cc:Work>
  </rdf:RDF>
 </metadata>
 <defs>
  <style type="text/css">*{stroke-linejoin: round; stroke-linecap: butt}</style>
 </defs>
 <g id="figure_1">
  <g id="patch_1">
   <path d="M 0 338.717607 
L 452.610991 338.717607 
L 452.610991 0 
L 0 0 
z
" style="fill: #ffffff"/>
  </g>
  <g id="axes_1">
   <g id="patch_2">
    <path d="M 51.62 262.240582 
L 401.349795 262.240582 
L 401.349795 7.2 
L 51.62 7.2 
z
" style="fill: #ffffff"/>
   </g>
   <g id="matplotlib.axis_1">
    <g id="xtick_1">
     <g id="line2d_1">
      <path d="M 67.516809 262.240582 
L 67.516809 7.2 
" clip-path="url(#p5dba15c024)" style="fill: none; stroke-dasharray: 5.55,2.4; stroke-dashoffset: 0; stroke: #a6a6a6; stroke-width: 1.5"/>
     </g>
     <g id="line2d_2">
      <defs>
       <path id="m787d7d41a2" d="M 0 0 
L 0 5 
" style="stroke: #000000; stroke-width: 1.5"/>
      </defs>
      <g>
       <use xlink:href="#m787d7d41a2" x="67.516809" y="262.240582" style="stroke: #000000; stroke-width: 1.5"/>
      </g>
     </g>
     <g id="text_1">
      <!-- −1.0 -->
      <g transform="translate(54.819465 280.461832) scale(0.14 -0.14)">
       <defs>
        <path id="TimesNewRomanPSMT-2212" d="M 3484 2000 
L 116 2000 
L 116 2256 
L 3484 2256 
L 3484 2000 
z
" transform="scale(0.015625)"/>
        <path id="TimesNewRomanPSMT-31" d="M 750 3822 
L 1781 4325 
L 1884 4325 
L 1884 747 
Q 1884 391 1914 303 
Q 1944 216 2037 169 
Q 2131 122 2419 116 
L 2419 0 
L 825 0 
L 825 116 
Q 1125 122 1212 167 
Q 1300 213 1334 289 
Q 1369 366 1369 747 
L 1369 3034 
Q 1369 3497 1338 3628 
Q 1316 3728 1258 3775 
Q 1200 3822 1119 3822 
Q 1003 3822 797 3725 
L 750 3822 
z
" transform="scale(0.015625)"/>
        <path id="TimesNewRomanPSMT-2e" d="M 800 606 
Q 947 606 1047 504 
Q 1147 403 1147 259 
Q 1147 116 1045 14 
Q 944 -88 800 -88 
Q 656 -88 554 14 
Q 453 116 453 259 
Q 453 406 554 506 
Q 656 606 800 606 
z
" transform="scale(0.015625)"/>
        <path id="TimesNewRomanPSMT-30" d="M 231 2094 
Q 231 2819 450 3342 
Q 669 3866 1031 4122 
Q 1313 4325 1613 4325 
Q 2100 4325 2488 3828 
Q 2972 3213 2972 2159 
Q 2972 1422 2759 906 
Q 2547 391 2217 158 
Q 1888 -75 1581 -75 
Q 975 -75 572 641 
Q 231 1244 231 2094 
z
M 844 2016 
Q 844 1141 1059 588 
Q 1238 122 1591 122 
Q 1759 122 1940 273 
Q 2122 425 2216 781 
Q 2359 1319 2359 2297 
Q 2359 3022 2209 3506 
Q 2097 3866 1919 4016 
Q 1791 4119 1609 4119 
Q 1397 4119 1231 3928 
Q 1006 3669 925 3112 
Q 844 2556 844 2016 
z
" transform="scale(0.015625)"/>
       </defs>
       <use xlink:href="#TimesNewRomanPSMT-2212"/>
       <use xlink:href="#TimesNewRomanPSMT-31" x="56.396484"/>
       <use xlink:href="#TimesNewRomanPSMT-2e" x="106.396484"/>
       <use xlink:href="#TimesNewRomanPSMT-30" x="131.396484"/>
      </g>
     </g>
    </g>
    <g id="xtick_2">
     <g id="line2d_3">
      <path d="M 147.000853 262.240582 
L 147.000853 7.2 
" clip-path="url(#p5dba15c024)" style="fill: none; stroke-dasharray: 5.55,2.4; stroke-dashoffset: 0; stroke: #a6a6a6; stroke-width: 1.5"/>
     </g>
     <g id="line2d_4">
      <g>
       <use xlink:href="#m787d7d41a2" x="147.000853" y="262.240582" style="stroke: #000000; stroke-width: 1.5"/>
      </g>
     </g>
     <g id="text_2">
      <!-- −0.5 -->
      <g transform="translate(134.303509 280.461832) scale(0.14 -0.14)">
       <defs>
        <path id="TimesNewRomanPSMT-35" d="M 2778 4238 
L 2534 3706 
L 1259 3706 
L 981 3138 
Q 1809 3016 2294 2522 
Q 2709 2097 2709 1522 
Q 2709 1188 2573 903 
Q 2438 619 2231 419 
Q 2025 219 1772 97 
Q 1413 -75 1034 -75 
Q 653 -75 479 54 
Q 306 184 306 341 
Q 306 428 378 495 
Q 450 563 559 563 
Q 641 563 702 538 
Q 763 513 909 409 
Q 1144 247 1384 247 
Q 1750 247 2026 523 
Q 2303 800 2303 1197 
Q 2303 1581 2056 1914 
Q 1809 2247 1375 2428 
Q 1034 2569 447 2591 
L 1259 4238 
L 2778 4238 
z
" transform="scale(0.015625)"/>
       </defs>
       <use xlink:href="#TimesNewRomanPSMT-2212"/>
       <use xlink:href="#TimesNewRomanPSMT-30" x="56.396484"/>
       <use xlink:href="#TimesNewRomanPSMT-2e" x="106.396484"/>
       <use xlink:href="#TimesNewRomanPSMT-35" x="131.396484"/>
      </g>
     </g>
    </g>
    <g id="xtick_3">
     <g id="line2d_5">
      <path d="M 226.484897 262.240582 
L 226.484897 7.2 
" clip-path="url(#p5dba15c024)" style="fill: none; stroke-dasharray: 5.55,2.4; stroke-dashoffset: 0; stroke: #a6a6a6; stroke-width: 1.5"/>
     </g>
     <g id="line2d_6">
      <g>
       <use xlink:href="#m787d7d41a2" x="226.484897" y="262.240582" style="stroke: #000000; stroke-width: 1.5"/>
      </g>
     </g>
     <g id="text_3">
      <!-- 0.0 -->
      <g transform="translate(217.734897 280.461832) scale(0.14 -0.14)">
       <use xlink:href="#TimesNewRomanPSMT-30"/>
       <use xlink:href="#TimesNewRomanPSMT-2e" x="50"/>
       <use xlink:href="#TimesNewRomanPSMT-30" x="75"/>
      </g>
     </g>
    </g>
    <g id="xtick_4">
     <g id="line2d_7">
      <path d="M 305.968942 262.240582 
L 305.968942 7.2 
" clip-path="url(#p5dba15c024)" style="fill: none; stroke-dasharray: 5.55,2.4; stroke-dashoffset: 0; stroke: #a6a6a6; stroke-width: 1.5"/>
     </g>
     <g id="line2d_8">
      <g>
       <use xlink:href="#m787d7d41a2" x="305.968942" y="262.240582" style="stroke: #000000; stroke-width: 1.5"/>
      </g>
     </g>
     <g id="text_4">
      <!-- 0.5 -->
      <g transform="translate(297.218942 280.461832) scale(0.14 -0.14)">
       <use xlink:href="#TimesNewRomanPSMT-30"/>
       <use xlink:href="#TimesNewRomanPSMT-2e" x="50"/>
       <use xlink:href="#TimesNewRomanPSMT-35" x="75"/>
      </g>
     </g>
    </g>
    <g id="xtick_5">
     <g id="line2d_9">
      <path d="M 385.452986 262.240582 
L 385.452986 7.2 
" clip-path="url(#p5dba15c024)" style="fill: none; stroke-dasharray: 5.55,2.4; stroke-dashoffset: 0; stroke: #a6a6a6; stroke-width: 1.5"/>
     </g>
     <g id="line2d_10">
      <g>
       <use xlink:href="#m787d7d41a2" x="385.452986" y="262.240582" style="stroke: #000000; stroke-width: 1.5"/>
      </g>
     </g>
     <g id="text_5">
      <!-- 1.0 -->
      <g transform="translate(376.702986 280.461832) scale(0.14 -0.14)">
       <use xlink:href="#TimesNewRomanPSMT-31"/>
       <use xlink:href="#TimesNewRomanPSMT-2e" x="50"/>
       <use xlink:href="#TimesNewRomanPSMT-30" x="75"/>
      </g>
     </g>
    </g>
    <g id="text_6">
     <!-- Position (mm) -->
     <g style="fill: #262626" transform="translate(180.482397 298.56652) scale(0.16 -0.16)">
      <defs>
       <path id="TimesNewRomanPSMT-50" d="M 1313 1984 
L 1313 750 
Q 1313 350 1400 253 
Q 1519 116 1759 116 
L 1922 116 
L 1922 0 
L 106 0 
L 106 116 
L 266 116 
Q 534 116 650 291 
Q 713 388 713 750 
L 713 3488 
Q 713 3888 628 3984 
Q 506 4122 266 4122 
L 106 4122 
L 106 4238 
L 1659 4238 
Q 2228 4238 2556 4120 
Q 2884 4003 3109 3725 
Q 3334 3447 3334 3066 
Q 3334 2547 2992 2222 
Q 2650 1897 2025 1897 
Q 1872 1897 1694 1919 
Q 1516 1941 1313 1984 
z
M 1313 2163 
Q 1478 2131 1606 2115 
Q 1734 2100 1825 2100 
Q 2150 2100 2386 2351 
Q 2622 2603 2622 3003 
Q 2622 3278 2509 3514 
Q 2397 3750 2190 3867 
Q 1984 3984 1722 3984 
Q 1563 3984 1313 3925 
L 1313 2163 
z
" transform="scale(0.015625)"/>
       <path id="TimesNewRomanPSMT-6f" d="M 1600 2947 
Q 2250 2947 2644 2453 
Q 2978 2031 2978 1484 
Q 2978 1100 2793 706 
Q 2609 313 2286 112 
Q 1963 -88 1566 -88 
Q 919 -88 538 428 
Q 216 863 216 1403 
Q 216 1797 411 2186 
Q 606 2575 925 2761 
Q 1244 2947 1600 2947 
z
M 1503 2744 
Q 1338 2744 1170 2645 
Q 1003 2547 900 2300 
Q 797 2053 797 1666 
Q 797 1041 1045 587 
Q 1294 134 1700 134 
Q 2003 134 2200 384 
Q 2397 634 2397 1244 
Q 2397 2006 2069 2444 
Q 1847 2744 1503 2744 
z
" transform="scale(0.015625)"/>
       <path id="TimesNewRomanPSMT-73" d="M 2050 2947 
L 2050 1972 
L 1947 1972 
Q 1828 2431 1642 2597 
Q 1456 2763 1169 2763 
Q 950 2763 815 2647 
Q 681 2531 681 2391 
Q 681 2216 781 2091 
Q 878 1963 1175 1819 
L 1631 1597 
Q 2266 1288 2266 781 
Q 2266 391 1970 151 
Q 1675 -88 1309 -88 
Q 1047 -88 709 6 
Q 606 38 541 38 
Q 469 38 428 -44 
L 325 -44 
L 325 978 
L 428 978 
Q 516 541 762 319 
Q 1009 97 1316 97 
Q 1531 97 1667 223 
Q 1803 350 1803 528 
Q 1803 744 1651 891 
Q 1500 1038 1047 1263 
Q 594 1488 453 1669 
Q 313 1847 313 2119 
Q 313 2472 555 2709 
Q 797 2947 1181 2947 
Q 1350 2947 1591 2875 
Q 1750 2828 1803 2828 
Q 1853 2828 1881 2850 
Q 1909 2872 1947 2947 
L 2050 2947 
z
" transform="scale(0.015625)"/>
       <path id="TimesNewRomanPSMT-69" d="M 928 4444 
Q 1059 4444 1151 4351 
Q 1244 4259 1244 4128 
Q 1244 3997 1151 3903 
Q 1059 3809 928 3809 
Q 797 3809 703 3903 
Q 609 3997 609 4128 
Q 609 4259 701 4351 
Q 794 4444 928 4444 
z
M 1188 2947 
L 1188 647 
Q 1188 378 1227 289 
Q 1266 200 1342 156 
Q 1419 113 1622 113 
L 1622 0 
L 231 0 
L 231 113 
Q 441 113 512 153 
Q 584 194 626 287 
Q 669 381 669 647 
L 669 1750 
Q 669 2216 641 2353 
Q 619 2453 572 2492 
Q 525 2531 444 2531 
Q 356 2531 231 2484 
L 188 2597 
L 1050 2947 
L 1188 2947 
z
" transform="scale(0.015625)"/>
       <path id="TimesNewRomanPSMT-74" d="M 1031 3803 
L 1031 2863 
L 1700 2863 
L 1700 2644 
L 1031 2644 
L 1031 788 
Q 1031 509 1111 412 
Q 1191 316 1316 316 
Q 1419 316 1516 380 
Q 1613 444 1666 569 
L 1788 569 
Q 1678 263 1478 108 
Q 1278 -47 1066 -47 
Q 922 -47 784 33 
Q 647 113 581 261 
Q 516 409 516 719 
L 516 2644 
L 63 2644 
L 63 2747 
Q 234 2816 414 2980 
Q 594 3144 734 3369 
Q 806 3488 934 3803 
L 1031 3803 
z
" transform="scale(0.015625)"/>
       <path id="TimesNewRomanPSMT-6e" d="M 1034 2341 
Q 1538 2947 1994 2947 
Q 2228 2947 2397 2830 
Q 2566 2713 2666 2444 
Q 2734 2256 2734 1869 
L 2734 647 
Q 2734 375 2778 278 
Q 2813 200 2889 156 
Q 2966 113 3172 113 
L 3172 0 
L 1756 0 
L 1756 113 
L 1816 113 
Q 2016 113 2095 173 
Q 2175 234 2206 353 
Q 2219 400 2219 647 
L 2219 1819 
Q 2219 2209 2117 2386 
Q 2016 2563 1775 2563 
Q 1403 2563 1034 2156 
L 1034 647 
Q 1034 356 1069 288 
Q 1113 197 1189 155 
Q 1266 113 1500 113 
L 1500 0 
L 84 0 
L 84 113 
L 147 113 
Q 366 113 442 223 
Q 519 334 519 647 
L 519 1709 
Q 519 2225 495 2337 
Q 472 2450 423 2490 
Q 375 2531 294 2531 
Q 206 2531 84 2484 
L 38 2597 
L 900 2947 
L 1034 2947 
L 1034 2341 
z
" transform="scale(0.015625)"/>
       <path id="TimesNewRomanPSMT-20" transform="scale(0.015625)"/>
       <path id="TimesNewRomanPSMT-28" d="M 1988 -1253 
L 1988 -1369 
Q 1516 -1131 1200 -813 
Q 750 -359 506 256 
Q 263 872 263 1534 
Q 263 2503 741 3301 
Q 1219 4100 1988 4444 
L 1988 4313 
Q 1603 4100 1356 3731 
Q 1109 3363 987 2797 
Q 866 2231 866 1616 
Q 866 947 969 400 
Q 1050 -31 1165 -292 
Q 1281 -553 1476 -793 
Q 1672 -1034 1988 -1253 
z
" transform="scale(0.015625)"/>
       <path id="TimesNewRomanPSMT-6d" d="M 1050 2338 
Q 1363 2650 1419 2697 
Q 1559 2816 1721 2881 
Q 1884 2947 2044 2947 
Q 2313 2947 2506 2790 
Q 2700 2634 2766 2338 
Q 3088 2713 3309 2830 
Q 3531 2947 3766 2947 
Q 3994 2947 4170 2830 
Q 4347 2713 4450 2447 
Q 4519 2266 4519 1878 
L 4519 647 
Q 4519 378 4559 278 
Q 4591 209 4675 161 
Q 4759 113 4950 113 
L 4950 0 
L 3538 0 
L 3538 113 
L 3597 113 
Q 3781 113 3884 184 
Q 3956 234 3988 344 
Q 4000 397 4000 647 
L 4000 1878 
Q 4000 2228 3916 2372 
Q 3794 2572 3525 2572 
Q 3359 2572 3192 2489 
Q 3025 2406 2788 2181 
L 2781 2147 
L 2788 2013 
L 2788 647 
Q 2788 353 2820 281 
Q 2853 209 2943 161 
Q 3034 113 3253 113 
L 3253 0 
L 1806 0 
L 1806 113 
Q 2044 113 2133 169 
Q 2222 225 2256 338 
Q 2272 391 2272 647 
L 2272 1878 
Q 2272 2228 2169 2381 
Q 2031 2581 1784 2581 
Q 1616 2581 1450 2491 
Q 1191 2353 1050 2181 
L 1050 647 
Q 1050 366 1089 281 
Q 1128 197 1204 155 
Q 1281 113 1516 113 
L 1516 0 
L 100 0 
L 100 113 
Q 297 113 375 155 
Q 453 197 493 289 
Q 534 381 534 647 
L 534 1741 
Q 534 2213 506 2350 
Q 484 2453 437 2492 
Q 391 2531 309 2531 
Q 222 2531 100 2484 
L 53 2597 
L 916 2947 
L 1050 2947 
L 1050 2338 
z
" transform="scale(0.015625)"/>
       <path id="TimesNewRomanPSMT-29" d="M 144 4313 
L 144 4444 
Q 619 4209 934 3891 
Q 1381 3434 1625 2820 
Q 1869 2206 1869 1541 
Q 1869 572 1392 -226 
Q 916 -1025 144 -1369 
L 144 -1253 
Q 528 -1038 776 -670 
Q 1025 -303 1145 264 
Q 1266 831 1266 1447 
Q 1266 2113 1163 2663 
Q 1084 3094 967 3353 
Q 850 3613 656 3853 
Q 463 4094 144 4313 
z
" transform="scale(0.015625)"/>
      </defs>
      <use xlink:href="#TimesNewRomanPSMT-50"/>
      <use xlink:href="#TimesNewRomanPSMT-6f" x="55.615234"/>
      <use xlink:href="#TimesNewRomanPSMT-73" x="105.615234"/>
      <use xlink:href="#TimesNewRomanPSMT-69" x="144.53125"/>
      <use xlink:href="#TimesNewRomanPSMT-74" x="172.314453"/>
      <use xlink:href="#TimesNewRomanPSMT-69" x="200.097656"/>
      <use xlink:href="#TimesNewRomanPSMT-6f" x="227.880859"/>
      <use xlink:href="#TimesNewRomanPSMT-6e" x="277.880859"/>
      <use xlink:href="#TimesNewRomanPSMT-20" x="327.880859"/>
      <use xlink:href="#TimesNewRomanPSMT-28" x="352.880859"/>
      <use xlink:href="#TimesNewRomanPSMT-6d" x="386.181641"/>
      <use xlink:href="#TimesNewRomanPSMT-6d" x="463.964844"/>
      <use xlink:href="#TimesNewRomanPSMT-29" x="541.748047"/>
     </g>
    </g>
   </g>
   <g id="matplotlib.axis_2">
    <g id="ytick_1">
     <g id="line2d_11">
      <path d="M 51.62 250.647829 
L 401.349795 250.647829 
" clip-path="url(#p5dba15c024)" style="fill: none; stroke-dasharray: 5.55,2.4; stroke-dashoffset: 0; stroke: #a6a6a6; stroke-width: 1.5"/>
     </g>
     <g id="line2d_12">
      <defs>
       <path id="mba260e0894" d="M 0 0 
L -5 0 
" style="stroke: #000000; stroke-width: 1.5"/>
      </defs>
      <g>
       <use xlink:href="#mba260e0894" x="51.62" y="250.647829" style="stroke: #000000; stroke-width: 1.5"/>
      </g>
     </g>
     <g id="text_7">
      <!-- 0 -->
      <g transform="translate(36.12 255.508454) scale(0.14 -0.14)">
       <use xlink:href="#TimesNewRomanPSMT-30"/>
      </g>
     </g>
    </g>
    <g id="ytick_2">
     <g id="line2d_13">
      <path d="M 51.62 212.005316 
L 401.349795 212.005316 
" clip-path="url(#p5dba15c024)" style="fill: none; stroke-dasharray: 5.55,2.4; stroke-dashoffset: 0; stroke: #a6a6a6; stroke-width: 1.5"/>
     </g>
     <g id="line2d_14">
      <g>
       <use xlink:href="#mba260e0894" x="51.62" y="212.005316" style="stroke: #000000; stroke-width: 1.5"/>
      </g>
     </g>
     <g id="text_8">
      <!-- 10 -->
      <g transform="translate(29.12 216.865941) scale(0.14 -0.14)">
       <use xlink:href="#TimesNewRomanPSMT-31"/>
       <use xlink:href="#TimesNewRomanPSMT-30" x="50"/>
      </g>
     </g>
    </g>
    <g id="ytick_3">
     <g id="line2d_15">
      <path d="M 51.62 173.362804 
L 401.349795 173.362804 
" clip-path="url(#p5dba15c024)" style="fill: none; stroke-dasharray: 5.55,2.4; stroke-dashoffset: 0; stroke: #a6a6a6; stroke-width: 1.5"/>
     </g>
     <g id="line2d_16">
      <g>
       <use xlink:href="#mba260e0894" x="51.62" y="173.362804" style="stroke: #000000; stroke-width: 1.5"/>
      </g>
     </g>
     <g id="text_9">
      <!-- 20 -->
      <g transform="translate(29.12 178.223429) scale(0.14 -0.14)">
       <defs>
        <path id="TimesNewRomanPSMT-32" d="M 2934 816 
L 2638 0 
L 138 0 
L 138 116 
Q 1241 1122 1691 1759 
Q 2141 2397 2141 2925 
Q 2141 3328 1894 3587 
Q 1647 3847 1303 3847 
Q 991 3847 742 3664 
Q 494 3481 375 3128 
L 259 3128 
Q 338 3706 661 4015 
Q 984 4325 1469 4325 
Q 1984 4325 2329 3994 
Q 2675 3663 2675 3213 
Q 2675 2891 2525 2569 
Q 2294 2063 1775 1497 
Q 997 647 803 472 
L 1909 472 
Q 2247 472 2383 497 
Q 2519 522 2628 598 
Q 2738 675 2819 816 
L 2934 816 
z
" transform="scale(0.015625)"/>
       </defs>
       <use xlink:href="#TimesNewRomanPSMT-32"/>
       <use xlink:href="#TimesNewRomanPSMT-30" x="50"/>
      </g>
     </g>
    </g>
    <g id="ytick_4">
     <g id="line2d_17">
      <path d="M 51.62 134.720291 
L 401.349795 134.720291 
" clip-path="url(#p5dba15c024)" style="fill: none; stroke-dasharray: 5.55,2.4; stroke-dashoffset: 0; stroke: #a6a6a6; stroke-width: 1.5"/>
     </g>
     <g id="line2d_18">
      <g>
       <use xlink:href="#mba260e0894" x="51.62" y="134.720291" style="stroke: #000000; stroke-width: 1.5"/>
      </g>
     </g>
     <g id="text_10">
      <!-- 30 -->
      <g transform="translate(29.12 139.580916) scale(0.14 -0.14)">
       <defs>
        <path id="TimesNewRomanPSMT-33" d="M 325 3431 
Q 506 3859 782 4092 
Q 1059 4325 1472 4325 
Q 1981 4325 2253 3994 
Q 2459 3747 2459 3466 
Q 2459 3003 1878 2509 
Q 2269 2356 2469 2072 
Q 2669 1788 2669 1403 
Q 2669 853 2319 450 
Q 1863 -75 997 -75 
Q 569 -75 414 31 
Q 259 138 259 259 
Q 259 350 332 419 
Q 406 488 509 488 
Q 588 488 669 463 
Q 722 447 909 348 
Q 1097 250 1169 231 
Q 1284 197 1416 197 
Q 1734 197 1970 444 
Q 2206 691 2206 1028 
Q 2206 1275 2097 1509 
Q 2016 1684 1919 1775 
Q 1784 1900 1550 2001 
Q 1316 2103 1072 2103 
L 972 2103 
L 972 2197 
Q 1219 2228 1467 2375 
Q 1716 2522 1828 2728 
Q 1941 2934 1941 3181 
Q 1941 3503 1739 3701 
Q 1538 3900 1238 3900 
Q 753 3900 428 3381 
L 325 3431 
z
" transform="scale(0.015625)"/>
       </defs>
       <use xlink:href="#TimesNewRomanPSMT-33"/>
       <use xlink:href="#TimesNewRomanPSMT-30" x="50"/>
      </g>
     </g>
    </g>
    <g id="ytick_5">
     <g id="line2d_19">
      <path d="M 51.62 96.077779 
L 401.349795 96.077779 
" clip-path="url(#p5dba15c024)" style="fill: none; stroke-dasharray: 5.55,2.4; stroke-dashoffset: 0; stroke: #a6a6a6; stroke-width: 1.5"/>
     </g>
     <g id="line2d_20">
      <g>
       <use xlink:href="#mba260e0894" x="51.62" y="96.077779" style="stroke: #000000; stroke-width: 1.5"/>
      </g>
     </g>
     <g id="text_11">
      <!-- 40 -->
      <g transform="translate(29.12 100.938404) scale(0.14 -0.14)">
       <defs>
        <path id="TimesNewRomanPSMT-34" d="M 2978 1563 
L 2978 1119 
L 2409 1119 
L 2409 0 
L 1894 0 
L 1894 1119 
L 100 1119 
L 100 1519 
L 2066 4325 
L 2409 4325 
L 2409 1563 
L 2978 1563 
z
M 1894 1563 
L 1894 3666 
L 406 1563 
L 1894 1563 
z
" transform="scale(0.015625)"/>
       </defs>
       <use xlink:href="#TimesNewRomanPSMT-34"/>
       <use xlink:href="#TimesNewRomanPSMT-30" x="50"/>
      </g>
     </g>
    </g>
    <g id="ytick_6">
     <g id="line2d_21">
      <path d="M 51.62 57.435266 
L 401.349795 57.435266 
" clip-path="url(#p5dba15c024)" style="fill: none; stroke-dasharray: 5.55,2.4; stroke-dashoffset: 0; stroke: #a6a6a6; stroke-width: 1.5"/>
     </g>
     <g id="line2d_22">
      <g>
       <use xlink:href="#mba260e0894" x="51.62" y="57.435266" style="stroke: #000000; stroke-width: 1.5"/>
      </g>
     </g>
     <g id="text_12">
      <!-- 50 -->
      <g transform="translate(29.12 62.295891) scale(0.14 -0.14)">
       <use xlink:href="#TimesNewRomanPSMT-35"/>
       <use xlink:href="#TimesNewRomanPSMT-30" x="50"/>
      </g>
     </g>
    </g>
    <g id="ytick_7">
     <g id="line2d_23">
      <path d="M 51.62 18.792754 
L 401.349795 18.792754 
" clip-path="url(#p5dba15c024)" style="fill: none; stroke-dasharray: 5.55,2.4; stroke-dashoffset: 0; stroke: #a6a6a6; stroke-width: 1.5"/>
     </g>
     <g id="line2d_24">
      <g>
       <use xlink:href="#mba260e0894" x="51.62" y="18.792754" style="stroke: #000000; stroke-width: 1.5"/>
      </g>
     </g>
     <g id="text_13">
      <!-- 60 -->
      <g transform="translate(29.12 23.653379) scale(0.14 -0.14)">
       <defs>
        <path id="TimesNewRomanPSMT-36" d="M 2869 4325 
L 2869 4209 
Q 2456 4169 2195 4045 
Q 1934 3922 1679 3669 
Q 1425 3416 1258 3105 
Q 1091 2794 978 2366 
Q 1428 2675 1881 2675 
Q 2316 2675 2634 2325 
Q 2953 1975 2953 1425 
Q 2953 894 2631 456 
Q 2244 -75 1606 -75 
Q 1172 -75 869 213 
Q 275 772 275 1663 
Q 275 2231 503 2743 
Q 731 3256 1154 3653 
Q 1578 4050 1965 4187 
Q 2353 4325 2688 4325 
L 2869 4325 
z
M 925 2138 
Q 869 1716 869 1456 
Q 869 1156 980 804 
Q 1091 453 1309 247 
Q 1469 100 1697 100 
Q 1969 100 2183 356 
Q 2397 613 2397 1088 
Q 2397 1622 2184 2012 
Q 1972 2403 1581 2403 
Q 1463 2403 1327 2353 
Q 1191 2303 925 2138 
z
" transform="scale(0.015625)"/>
       </defs>
       <use xlink:href="#TimesNewRomanPSMT-36"/>
       <use xlink:href="#TimesNewRomanPSMT-30" x="50"/>
      </g>
     </g>
    </g>
    <g id="text_14">
     <!-- $V_x \left(\frac{\mathrm{mm}}{\mathrm{s}}\right)$ -->
     <g style="fill: #262626" transform="translate(20.64 162.400291) rotate(-90) scale(0.16 -0.16)">
      <defs>
       <path id="DejaVuSans-Oblique-56" d="M 1319 0 
L 500 4666 
L 1119 4666 
L 1797 653 
L 4063 4666 
L 4750 4666 
L 2053 0 
L 1319 0 
z
" transform="scale(0.015625)"/>
       <path id="DejaVuSans-Oblique-78" d="M 3841 3500 
L 2234 1784 
L 3219 0 
L 2559 0 
L 1819 1388 
L 531 0 
L -166 0 
L 1556 1844 
L 641 3500 
L 1300 3500 
L 1972 2234 
L 3144 3500 
L 3841 3500 
z
" transform="scale(0.015625)"/>
       <path id="STIXSizeOneSym-Regular-28" d="M 2445 -858 
L 2445 -1050 
Q 1728 -371 1309 630 
Q 890 1632 890 2886 
Q 890 4122 1309 5136 
Q 1728 6150 2445 6822 
L 2445 6630 
Q 1408 5363 1408 2886 
Q 1408 410 2445 -858 
z
" transform="scale(0.015625)"/>
       <path id="DejaVuSans-6d" d="M 3328 2828 
Q 3544 3216 3844 3400 
Q 4144 3584 4550 3584 
Q 5097 3584 5394 3201 
Q 5691 2819 5691 2113 
L 5691 0 
L 5113 0 
L 5113 2094 
Q 5113 2597 4934 2840 
Q 4756 3084 4391 3084 
Q 3944 3084 3684 2787 
Q 3425 2491 3425 1978 
L 3425 0 
L 2847 0 
L 2847 2094 
Q 2847 2600 2669 2842 
Q 2491 3084 2119 3084 
Q 1678 3084 1418 2786 
Q 1159 2488 1159 1978 
L 1159 0 
L 581 0 
L 581 3500 
L 1159 3500 
L 1159 2956 
Q 1356 3278 1631 3431 
Q 1906 3584 2284 3584 
Q 2666 3584 2933 3390 
Q 3200 3197 3328 2828 
z
" transform="scale(0.015625)"/>
       <path id="DejaVuSans-73" d="M 2834 3397 
L 2834 2853 
Q 2591 2978 2328 3040 
Q 2066 3103 1784 3103 
Q 1356 3103 1142 2972 
Q 928 2841 928 2578 
Q 928 2378 1081 2264 
Q 1234 2150 1697 2047 
L 1894 2003 
Q 2506 1872 2764 1633 
Q 3022 1394 3022 966 
Q 3022 478 2636 193 
Q 2250 -91 1575 -91 
Q 1294 -91 989 -36 
Q 684 19 347 128 
L 347 722 
Q 666 556 975 473 
Q 1284 391 1588 391 
Q 1994 391 2212 530 
Q 2431 669 2431 922 
Q 2431 1156 2273 1281 
Q 2116 1406 1581 1522 
L 1381 1569 
Q 847 1681 609 1914 
Q 372 2147 372 2553 
Q 372 3047 722 3315 
Q 1072 3584 1716 3584 
Q 2034 3584 2315 3537 
Q 2597 3491 2834 3397 
z
" transform="scale(0.015625)"/>
       <path id="STIXSizeOneSym-Regular-29" d="M 550 6630 
L 550 6822 
Q 1267 6144 1686 5142 
Q 2106 4141 2106 2886 
Q 2106 1651 1686 636 
Q 1267 -378 550 -1050 
L 550 -858 
Q 1587 410 1587 2886 
Q 1587 5363 550 6630 
z
" transform="scale(0.015625)"/>
      </defs>
      <use xlink:href="#DejaVuSans-Oblique-56" transform="translate(0 0.945312)"/>
      <use xlink:href="#DejaVuSans-Oblique-78" transform="translate(68.408203 -15.460938) scale(0.7)"/>
      <use xlink:href="#STIXSizeOneSym-Regular-28" transform="translate(112.568359 -11.9375) scale(0.899555)"/>
      <use xlink:href="#DejaVuSans-6d" transform="translate(154.688354 44.742187) scale(0.7)"/>
      <use xlink:href="#DejaVuSans-6d" transform="translate(222.876831 44.742187) scale(0.7)"/>
      <use xlink:href="#DejaVuSans-73" transform="translate(204.688354 -25.707813) scale(0.7)"/>
      <use xlink:href="#STIXSizeOneSym-Regular-29" transform="translate(303.565308 -11.9375) scale(0.899555)"/>
      <path d="M 154.688354 19.742188 
L 154.688354 25.992187 
L 291.065308 25.992187 
L 291.065308 19.742188 
L 154.688354 19.742188 
z
"/>
     </g>
    </g>
   </g>
   <g id="PathCollection_1">
    <defs>
     <path id="maa6fbad614" d="M 0 3 
C 0.795609 3 1.55874 2.683901 2.12132 2.12132 
C 2.683901 1.55874 3 0.795609 3 0 
C 3 -0.795609 2.683901 -1.55874 2.12132 -2.12132 
C 1.55874 -2.683901 0.795609 -3 0 -3 
C -0.795609 -3 -1.55874 -2.683901 -2.12132 -2.12132 
C -2.683901 -1.55874 -3 -0.795609 -3 0 
C -3 0.795609 -2.683901 1.55874 -2.12132 2.12132 
C -1.55874 2.683901 -0.795609 3 0 3 
z
" style="stroke: #ff3333"/>
    </defs>
    <g clip-path="url(#p5dba15c024)">
     <use xlink:href="#maa6fbad614" x="83.413618" y="173.362804" style="fill: #ff3333; stroke: #ff3333"/>
     <use xlink:href="#maa6fbad614" x="115.207235" y="111.534784" style="fill: #ff3333; stroke: #ff3333"/>
     <use xlink:href="#maa6fbad614" x="147.000853" y="65.163769" style="fill: #ff3333; stroke: #ff3333"/>
     <use xlink:href="#maa6fbad614" x="178.794471" y="34.249759" style="fill: #ff3333; stroke: #ff3333"/>
     <use xlink:href="#maa6fbad614" x="210.588089" y="18.792754" style="fill: #ff3333; stroke: #ff3333"/>
     <use xlink:href="#maa6fbad614" x="242.381706" y="18.792754" style="fill: #ff3333; stroke: #ff3333"/>
     <use xlink:href="#maa6fbad614" x="274.175324" y="34.249759" style="fill: #ff3333; stroke: #ff3333"/>
     <use xlink:href="#maa6fbad614" x="305.968942" y="65.163769" style="fill: #ff3333; stroke: #ff3333"/>
     <use xlink:href="#maa6fbad614" x="337.762559" y="111.534784" style="fill: #ff3333; stroke: #ff3333"/>
     <use xlink:href="#maa6fbad614" x="369.556177" y="173.362804" style="fill: #ff3333; stroke: #ff3333"/>
    </g>
   </g>
   <g id="PathCollection_2">
    <defs>
     <path id="med88afa063" d="M 0 3 
C 0.795609 3 1.55874 2.683901 2.12132 2.12132 
C 2.683901 1.55874 3 0.795609 3 0 
C 3 -0.795609 2.683901 -1.55874 2.12132 -2.12132 
C 1.55874 -2.683901 0.795609 -3 0 -3 
C -0.795609 -3 -1.55874 -2.683901 -2.12132 -2.12132 
C -2.683901 -1.55874 -3 -0.795609 -3 0 
C -3 0.795609 -2.683901 1.55874 -2.12132 2.12132 
C -1.55874 2.683901 -0.795609 3 0 3 
z
" style="stroke: #3333ff"/>
    </defs>
    <g clip-path="url(#p5dba15c024)">
     <use xlink:href="#med88afa063" x="75.465213" y="212.005316" style="fill: #3333ff; stroke: #3333ff"/>
     <use xlink:href="#med88afa063" x="91.362022" y="177.227055" style="fill: #3333ff; stroke: #3333ff"/>
     <use xlink:href="#med88afa063" x="107.258831" y="146.313045" style="fill: #3333ff; stroke: #3333ff"/>
     <use xlink:href="#med88afa063" x="123.15564" y="119.263286" style="fill: #3333ff; stroke: #3333ff"/>
     <use xlink:href="#med88afa063" x="139.052449" y="96.077779" style="fill: #3333ff; stroke: #3333ff"/>
     <use xlink:href="#med88afa063" x="154.949258" y="76.756522" style="fill: #3333ff; stroke: #3333ff"/>
     <use xlink:href="#med88afa063" x="170.846066" y="61.299517" style="fill: #3333ff; stroke: #3333ff"/>
     <use xlink:href="#med88afa063" x="186.742875" y="49.706764" style="fill: #3333ff; stroke: #3333ff"/>
     <use xlink:href="#med88afa063" x="202.639684" y="41.978261" style="fill: #3333ff; stroke: #3333ff"/>
     <use xlink:href="#med88afa063" x="218.536493" y="38.11401" style="fill: #3333ff; stroke: #3333ff"/>
     <use xlink:href="#med88afa063" x="234.433302" y="38.11401" style="fill: #3333ff; stroke: #3333ff"/>
     <use xlink:href="#med88afa063" x="250.330111" y="41.978261" style="fill: #3333ff; stroke: #3333ff"/>
     <use xlink:href="#med88afa063" x="266.22692" y="49.706764" style="fill: #3333ff; stroke: #3333ff"/>
     <use xlink:href="#med88afa063" x="282.123728" y="61.299517" style="fill: #3333ff; stroke: #3333ff"/>
     <use xlink:href="#med88afa063" x="298.020537" y="76.756522" style="fill: #3333ff; stroke: #3333ff"/>
     <use xlink:href="#med88afa063" x="313.917346" y="96.077779" style="fill: #3333ff; stroke: #3333ff"/>
     <use xlink:href="#med88afa063" x="329.814155" y="119.263286" style="fill: #3333ff; stroke: #3333ff"/>
     <use xlink:href="#med88afa063" x="345.710964" y="146.313045" style="fill: #3333ff; stroke: #3333ff"/>
     <use xlink:href="#med88afa063" x="361.607773" y="177.227055" style="fill: #3333ff; stroke: #3333ff"/>
     <use xlink:href="#med88afa063" x="377.504582" y="212.005316" style="fill: #3333ff; stroke: #3333ff"/>
    </g>
   </g>
   <g id="PathCollection_3">
    <defs>
     <path id="mc68bdf4977" d="M 0 3 
C 0.795609 3 1.55874 2.683901 2.12132 2.12132 
C 2.683901 1.55874 3 0.795609 3 0 
C 3 -0.795609 2.683901 -1.55874 2.12132 -2.12132 
C 1.55874 -2.683901 0.795609 -3 0 -3 
C -0.795609 -3 -1.55874 -2.683901 -2.12132 -2.12132 
C -2.683901 -1.55874 -3 -0.795609 -3 0 
C -3 0.795609 -2.683901 1.55874 -2.12132 2.12132 
C -1.55874 2.683901 -0.795609 3 0 3 
z
" style="stroke: #33cc33"/>
    </defs>
    <g clip-path="url(#p5dba15c024)">
     <use xlink:href="#mc68bdf4977" x="71.491011" y="231.326572" style="fill: #33cc33; stroke: #33cc33"/>
     <use xlink:href="#mc68bdf4977" x="79.439416" y="212.971379" style="fill: #33cc33; stroke: #33cc33"/>
     <use xlink:href="#mc68bdf4977" x="87.38782" y="195.582248" style="fill: #33cc33; stroke: #33cc33"/>
     <use xlink:href="#mc68bdf4977" x="95.336224" y="179.159181" style="fill: #33cc33; stroke: #33cc33"/>
     <use xlink:href="#mc68bdf4977" x="103.284629" y="163.702176" style="fill: #33cc33; stroke: #33cc33"/>
     <use xlink:href="#mc68bdf4977" x="111.233033" y="149.211233" style="fill: #33cc33; stroke: #33cc33"/>
     <use xlink:href="#mc68bdf4977" x="119.181438" y="135.686354" style="fill: #33cc33; stroke: #33cc33"/>
     <use xlink:href="#mc68bdf4977" x="127.129842" y="123.127537" style="fill: #33cc33; stroke: #33cc33"/>
     <use xlink:href="#mc68bdf4977" x="135.078247" y="111.534784" style="fill: #33cc33; stroke: #33cc33"/>
     <use xlink:href="#mc68bdf4977" x="143.026651" y="100.908093" style="fill: #33cc33; stroke: #33cc33"/>
     <use xlink:href="#mc68bdf4977" x="150.975055" y="91.247465" style="fill: #33cc33; stroke: #33cc33"/>
     <use xlink:href="#mc68bdf4977" x="158.92346" y="82.552899" style="fill: #33cc33; stroke: #33cc33"/>
     <use xlink:href="#mc68bdf4977" x="166.871864" y="74.824397" style="fill: #33cc33; stroke: #33cc33"/>
     <use xlink:href="#mc68bdf4977" x="174.820269" y="68.061957" style="fill: #33cc33; stroke: #33cc33"/>
     <use xlink:href="#mc68bdf4977" x="182.768673" y="62.26558" style="fill: #33cc33; stroke: #33cc33"/>
     <use xlink:href="#mc68bdf4977" x="190.717078" y="57.435266" style="fill: #33cc33; stroke: #33cc33"/>
     <use xlink:href="#mc68bdf4977" x="198.665482" y="53.571015" style="fill: #33cc33; stroke: #33cc33"/>
     <use xlink:href="#mc68bdf4977" x="206.613886" y="50.672827" style="fill: #33cc33; stroke: #33cc33"/>
     <use xlink:href="#mc68bdf4977" x="214.562291" y="48.740701" style="fill: #33cc33; stroke: #33cc33"/>
     <use xlink:href="#mc68bdf4977" x="222.510695" y="47.774638" style="fill: #33cc33; stroke: #33cc33"/>
     <use xlink:href="#mc68bdf4977" x="230.4591" y="47.774638" style="fill: #33cc33; stroke: #33cc33"/>
     <use xlink:href="#mc68bdf4977" x="238.407504" y="48.740701" style="fill: #33cc33; stroke: #33cc33"/>
     <use xlink:href="#mc68bdf4977" x="246.355909" y="50.672827" style="fill: #33cc33; stroke: #33cc33"/>
     <use xlink:href="#mc68bdf4977" x="254.304313" y="53.571015" style="fill: #33cc33; stroke: #33cc33"/>
     <use xlink:href="#mc68bdf4977" x="262.252717" y="57.435266" style="fill: #33cc33; stroke: #33cc33"/>
     <use xlink:href="#mc68bdf4977" x="270.201122" y="62.26558" style="fill: #33cc33; stroke: #33cc33"/>
     <use xlink:href="#mc68bdf4977" x="278.149526" y="68.061957" style="fill: #33cc33; stroke: #33cc33"/>
     <use xlink:href="#mc68bdf4977" x="286.097931" y="74.824397" style="fill: #33cc33; stroke: #33cc33"/>
     <use xlink:href="#mc68bdf4977" x="294.046335" y="82.552899" style="fill: #33cc33; stroke: #33cc33"/>
     <use xlink:href="#mc68bdf4977" x="301.99474" y="91.247465" style="fill: #33cc33; stroke: #33cc33"/>
     <use xlink:href="#mc68bdf4977" x="309.943144" y="100.908093" style="fill: #33cc33; stroke: #33cc33"/>
     <use xlink:href="#mc68bdf4977" x="317.891548" y="111.534784" style="fill: #33cc33; stroke: #33cc33"/>
     <use xlink:href="#mc68bdf4977" x="325.839953" y="123.127537" style="fill: #33cc33; stroke: #33cc33"/>
     <use xlink:href="#mc68bdf4977" x="333.788357" y="135.686354" style="fill: #33cc33; stroke: #33cc33"/>
     <use xlink:href="#mc68bdf4977" x="341.736762" y="149.211233" style="fill: #33cc33; stroke: #33cc33"/>
     <use xlink:href="#mc68bdf4977" x="349.685166" y="163.702176" style="fill: #33cc33; stroke: #33cc33"/>
     <use xlink:href="#mc68bdf4977" x="357.633571" y="179.159181" style="fill: #33cc33; stroke: #33cc33"/>
     <use xlink:href="#mc68bdf4977" x="365.581975" y="195.582248" style="fill: #33cc33; stroke: #33cc33"/>
     <use xlink:href="#mc68bdf4977" x="373.530379" y="212.971379" style="fill: #33cc33; stroke: #33cc33"/>
     <use xlink:href="#mc68bdf4977" x="381.478784" y="231.326572" style="fill: #33cc33; stroke: #33cc33"/>
    </g>
   </g>
   <g id="line2d_25">
    <path d="M 67.516809 250.647829 
L 73.907486 235.425405 
L 80.298163 220.827491 
L 86.68884 206.854087 
L 93.079517 193.505193 
L 99.470194 180.780808 
L 105.86087 168.680933 
L 110.653878 160.015861 
L 115.446886 151.702076 
L 120.239894 143.739577 
L 125.032901 136.128365 
L 129.825909 128.86844 
L 134.618917 121.959802 
L 139.411924 115.40245 
L 144.204932 109.196385 
L 148.99794 103.341607 
L 153.790947 97.838115 
L 158.583955 92.685911 
L 163.376963 87.884992 
L 168.16997 83.435361 
L 172.962978 79.337016 
L 177.755986 75.589958 
L 182.548994 72.194187 
L 187.342001 69.149702 
L 192.135009 66.456504 
L 196.928017 64.114592 
L 201.721024 62.123968 
L 206.514032 60.48463 
L 209.709371 59.586897 
L 212.904709 58.845292 
L 216.100047 58.259814 
L 219.295386 57.830464 
L 222.490724 57.557241 
L 225.686063 57.440145 
L 228.881401 57.479177 
L 232.07674 57.674336 
L 235.272078 58.025623 
L 238.467417 58.533037 
L 241.662755 59.196579 
L 244.858094 60.016248 
L 248.053432 60.992044 
L 252.84644 62.748478 
L 257.639447 64.856198 
L 262.432455 67.315205 
L 267.225463 70.125498 
L 272.018471 73.287078 
L 276.811478 76.799945 
L 281.604486 80.664099 
L 286.397494 84.879539 
L 291.190501 89.446267 
L 295.983509 94.36428 
L 300.776517 99.633581 
L 305.569524 105.254168 
L 310.362532 111.226042 
L 315.15554 117.549202 
L 319.948548 124.22365 
L 324.741555 131.249384 
L 329.534563 138.626404 
L 334.327571 146.354712 
L 339.120578 154.434306 
L 343.913586 162.865186 
L 348.706594 171.647354 
L 355.097271 183.903356 
L 361.487948 196.783868 
L 367.878625 210.28889 
L 374.269301 224.418422 
L 380.659978 239.172463 
L 385.452986 250.647829 
L 385.452986 250.647829 
" clip-path="url(#p5dba15c024)" style="fill: none; stroke-dasharray: 7.4,3.2; stroke-dashoffset: 0; stroke: #808080; stroke-width: 2"/>
   </g>
   <g id="patch_3">
    <path d="M 51.62 262.240582 
L 51.62 7.2 
" style="fill: none; stroke: #000000; stroke-linejoin: miter; stroke-linecap: square"/>
   </g>
   <g id="patch_4">
    <path d="M 401.349795 262.240582 
L 401.349795 7.2 
" style="fill: none; stroke: #000000; stroke-linejoin: miter; stroke-linecap: square"/>
   </g>
   <g id="patch_5">
    <path d="M 51.62 262.240582 
L 401.349795 262.240582 
" style="fill: none; stroke: #000000; stroke-linejoin: miter; stroke-linecap: square"/>
   </g>
   <g id="patch_6">
    <path d="M 51.62 7.2 
L 401.349795 7.2 
" style="fill: none; stroke: #000000; stroke-linejoin: miter; stroke-linecap: square"/>
   </g>
   <g id="legend_1">
    <g id="line2d_26">
     <path d="M 13.158804 317.99667 
L 27.158804 317.99667 
L 41.158804 317.99667 
" style="fill: none; stroke-dasharray: 7.4,3.2; stroke-dashoffset: 0; stroke: #808080; stroke-width: 2"/>
    </g>
    <g id="text_15">
     <!-- Analytical -->
     <g transform="translate(52.358804 322.89667) scale(0.14 -0.14)">
      <defs>
       <path id="TimesNewRomanPSMT-41" d="M 2928 1419 
L 1288 1419 
L 1000 750 
Q 894 503 894 381 
Q 894 284 986 211 
Q 1078 138 1384 116 
L 1384 0 
L 50 0 
L 50 116 
Q 316 163 394 238 
Q 553 388 747 847 
L 2238 4334 
L 2347 4334 
L 3822 809 
Q 4000 384 4145 257 
Q 4291 131 4550 116 
L 4550 0 
L 2878 0 
L 2878 116 
Q 3131 128 3220 200 
Q 3309 272 3309 375 
Q 3309 513 3184 809 
L 2928 1419 
z
M 2841 1650 
L 2122 3363 
L 1384 1650 
L 2841 1650 
z
" transform="scale(0.015625)"/>
       <path id="TimesNewRomanPSMT-61" d="M 1822 413 
Q 1381 72 1269 19 
Q 1100 -59 909 -59 
Q 613 -59 420 144 
Q 228 347 228 678 
Q 228 888 322 1041 
Q 450 1253 767 1440 
Q 1084 1628 1822 1897 
L 1822 2009 
Q 1822 2438 1686 2597 
Q 1550 2756 1291 2756 
Q 1094 2756 978 2650 
Q 859 2544 859 2406 
L 866 2225 
Q 866 2081 792 2003 
Q 719 1925 600 1925 
Q 484 1925 411 2006 
Q 338 2088 338 2228 
Q 338 2497 613 2722 
Q 888 2947 1384 2947 
Q 1766 2947 2009 2819 
Q 2194 2722 2281 2516 
Q 2338 2381 2338 1966 
L 2338 994 
Q 2338 584 2353 492 
Q 2369 400 2405 369 
Q 2441 338 2488 338 
Q 2538 338 2575 359 
Q 2641 400 2828 588 
L 2828 413 
Q 2478 -56 2159 -56 
Q 2006 -56 1915 50 
Q 1825 156 1822 413 
z
M 1822 616 
L 1822 1706 
Q 1350 1519 1213 1441 
Q 966 1303 859 1153 
Q 753 1003 753 825 
Q 753 600 887 451 
Q 1022 303 1197 303 
Q 1434 303 1822 616 
z
" transform="scale(0.015625)"/>
       <path id="TimesNewRomanPSMT-6c" d="M 1184 4444 
L 1184 647 
Q 1184 378 1223 290 
Q 1263 203 1344 158 
Q 1425 113 1647 113 
L 1647 0 
L 244 0 
L 244 113 
Q 441 113 512 153 
Q 584 194 625 287 
Q 666 381 666 647 
L 666 3247 
Q 666 3731 644 3842 
Q 622 3953 573 3993 
Q 525 4034 450 4034 
Q 369 4034 244 3984 
L 191 4094 
L 1044 4444 
L 1184 4444 
z
" transform="scale(0.015625)"/>
       <path id="TimesNewRomanPSMT-79" d="M 38 2863 
L 1372 2863 
L 1372 2747 
L 1306 2747 
Q 1166 2747 1095 2686 
Q 1025 2625 1025 2534 
Q 1025 2413 1128 2197 
L 1825 753 
L 2466 2334 
Q 2519 2463 2519 2588 
Q 2519 2644 2497 2672 
Q 2472 2706 2419 2726 
Q 2366 2747 2231 2747 
L 2231 2863 
L 3163 2863 
L 3163 2747 
Q 3047 2734 2984 2696 
Q 2922 2659 2847 2556 
Q 2819 2513 2741 2316 
L 1575 -541 
Q 1406 -956 1132 -1168 
Q 859 -1381 606 -1381 
Q 422 -1381 303 -1275 
Q 184 -1169 184 -1031 
Q 184 -900 270 -820 
Q 356 -741 506 -741 
Q 609 -741 788 -809 
Q 913 -856 944 -856 
Q 1038 -856 1148 -759 
Q 1259 -663 1372 -384 
L 1575 113 
L 547 2272 
Q 500 2369 397 2513 
Q 319 2622 269 2659 
Q 197 2709 38 2747 
L 38 2863 
z
" transform="scale(0.015625)"/>
       <path id="TimesNewRomanPSMT-63" d="M 2631 1088 
Q 2516 522 2178 217 
Q 1841 -88 1431 -88 
Q 944 -88 581 321 
Q 219 731 219 1428 
Q 219 2103 620 2525 
Q 1022 2947 1584 2947 
Q 2006 2947 2278 2723 
Q 2550 2500 2550 2259 
Q 2550 2141 2473 2067 
Q 2397 1994 2259 1994 
Q 2075 1994 1981 2113 
Q 1928 2178 1911 2362 
Q 1894 2547 1784 2644 
Q 1675 2738 1481 2738 
Q 1169 2738 978 2506 
Q 725 2200 725 1697 
Q 725 1184 976 792 
Q 1228 400 1656 400 
Q 1963 400 2206 609 
Q 2378 753 2541 1131 
L 2631 1088 
z
" transform="scale(0.015625)"/>
      </defs>
      <use xlink:href="#TimesNewRomanPSMT-41"/>
      <use xlink:href="#TimesNewRomanPSMT-6e" x="72.216797"/>
      <use xlink:href="#TimesNewRomanPSMT-61" x="122.216797"/>
      <use xlink:href="#TimesNewRomanPSMT-6c" x="166.601562"/>
      <use xlink:href="#TimesNewRomanPSMT-79" x="194.384766"/>
      <use xlink:href="#TimesNewRomanPSMT-74" x="244.384766"/>
      <use xlink:href="#TimesNewRomanPSMT-69" x="272.167969"/>
      <use xlink:href="#TimesNewRomanPSMT-63" x="299.951172"/>
      <use xlink:href="#TimesNewRomanPSMT-61" x="344.335938"/>
      <use xlink:href="#TimesNewRomanPSMT-6c" x="388.720703"/>
     </g>
    </g>
    <g id="PathCollection_4">
     <defs>
      <path id="me2fc1c7b02" d="M 0 6 
C 1.591219 6 3.117479 5.367802 4.242641 4.242641 
C 5.367802 3.117479 6 1.591219 6 0 
C 6 -1.591219 5.367802 -3.117479 4.242641 -4.242641 
C 3.117479 -5.367802 1.591219 -6 0 -6 
C -1.591219 -6 -3.117479 -5.367802 -4.242641 -4.242641 
C -5.367802 -3.117479 -6 -1.591219 -6 0 
C -6 1.591219 -5.367802 3.117479 -4.242641 4.242641 
C -3.117479 5.367802 -1.591219 6 0 6 
z
" style="stroke: #ff3333"/>
     </defs>
     <g>
      <use xlink:href="#me2fc1c7b02" x="152.670991" y="319.22167" style="fill: #ff3333; stroke: #ff3333"/>
     </g>
    </g>
    <g id="text_16">
     <!-- 0.2 $\Delta Z$ -->
     <g transform="translate(177.870991 322.89667) scale(0.14 -0.14)">
      <defs>
       <path id="DejaVuSans-394" d="M 2188 4044 
L 906 525 
L 3472 525 
L 2188 4044 
z
M 50 0 
L 1831 4666 
L 2547 4666 
L 4325 0 
L 50 0 
z
" transform="scale(0.015625)"/>
       <path id="DejaVuSans-Oblique-5a" d="M 838 4666 
L 4500 4666 
L 4409 4184 
L 794 531 
L 3769 531 
L 3669 0 
L -141 0 
L -50 481 
L 3566 4134 
L 738 4134 
L 838 4666 
z
" transform="scale(0.015625)"/>
      </defs>
      <use xlink:href="#TimesNewRomanPSMT-30" transform="translate(0 0.09375)"/>
      <use xlink:href="#TimesNewRomanPSMT-2e" transform="translate(50 0.09375)"/>
      <use xlink:href="#TimesNewRomanPSMT-32" transform="translate(75 0.09375)"/>
      <use xlink:href="#TimesNewRomanPSMT-20" transform="translate(125 0.09375)"/>
      <use xlink:href="#DejaVuSans-394" transform="translate(150 0.09375)"/>
      <use xlink:href="#DejaVuSans-Oblique-5a" transform="translate(218.408203 0.09375)"/>
     </g>
    </g>
    <g id="PathCollection_5">
     <defs>
      <path id="me2d167b691" d="M 0 6 
C 1.591219 6 3.117479 5.367802 4.242641 4.242641 
C 5.367802 3.117479 6 1.591219 6 0 
C 6 -1.591219 5.367802 -3.117479 4.242641 -4.242641 
C 3.117479 -5.367802 1.591219 -6 0 -6 
C -1.591219 -6 -3.117479 -5.367802 -4.242641 -4.242641 
C -5.367802 -3.117479 -6 -1.591219 -6 0 
C -6 1.591219 -5.367802 3.117479 -4.242641 4.242641 
C -3.117479 5.367802 -1.591219 6 0 6 
z
" style="stroke: #3333ff"/>
     </defs>
     <g>
      <use xlink:href="#me2d167b691" x="260.050991" y="319.22167" style="fill: #3333ff; stroke: #3333ff"/>
     </g>
    </g>
    <g id="text_17">
     <!-- 0.1 $\Delta Z$ -->
     <g transform="translate(285.250991 322.89667) scale(0.14 -0.14)">
      <use xlink:href="#TimesNewRomanPSMT-30" transform="translate(0 0.09375)"/>
      <use xlink:href="#TimesNewRomanPSMT-2e" transform="translate(50 0.09375)"/>
      <use xlink:href="#TimesNewRomanPSMT-31" transform="translate(75 0.09375)"/>
      <use xlink:href="#TimesNewRomanPSMT-20" transform="translate(125 0.09375)"/>
      <use xlink:href="#DejaVuSans-394" transform="translate(150 0.09375)"/>
      <use xlink:href="#DejaVuSans-Oblique-5a" transform="translate(218.408203 0.09375)"/>
     </g>
    </g>
    <g id="PathCollection_6">
     <defs>
      <path id="mc07b7baf28" d="M 0 6 
C 1.591219 6 3.117479 5.367802 4.242641 4.242641 
C 5.367802 3.117479 6 1.591219 6 0 
C 6 -1.591219 5.367802 -3.117479 4.242641 -4.242641 
C 3.117479 -5.367802 1.591219 -6 0 -6 
C -1.591219 -6 -3.117479 -5.367802 -4.242641 -4.242641 
C -5.367802 -3.117479 -6 -1.591219 -6 0 
C -6 1.591219 -5.367802 3.117479 -4.242641 4.242641 
C -3.117479 5.367802 -1.591219 6 0 6 
z
" style="stroke: #33cc33"/>
     </defs>
     <g>
      <use xlink:href="#mc07b7baf28" x="367.430991" y="319.22167" style="fill: #33cc33; stroke: #33cc33"/>
     </g>
    </g>
    <g id="text_18">
     <!-- 0.05 $\Delta Z$ -->
     <g transform="translate(392.630991 322.89667) scale(0.14 -0.14)">
      <use xlink:href="#TimesNewRomanPSMT-30" transform="translate(0 0.09375)"/>
      <use xlink:href="#TimesNewRomanPSMT-2e" transform="translate(50 0.09375)"/>
      <use xlink:href="#TimesNewRomanPSMT-30" transform="translate(75 0.09375)"/>
      <use xlink:href="#TimesNewRomanPSMT-35" transform="translate(125 0.09375)"/>
      <use xlink:href="#TimesNewRomanPSMT-20" transform="translate(175 0.09375)"/>
      <use xlink:href="#DejaVuSans-394" transform="translate(200 0.09375)"/>
      <use xlink:href="#DejaVuSans-Oblique-5a" transform="translate(268.408203 0.09375)"/>
     </g>
    </g>
   </g>
  </g>
 </g>
 <defs>
  <clipPath id="p5dba15c024">
   <rect x="51.62" y="7.2" width="349.729795" height="255.040582"/>
  </clipPath>
 </defs>
</svg>
